<svg width="18" height="21" viewBox="0 0 18 21" fill="none" xmlns="http://www.w3.org/2000/svg">
<path d="M10.4419 0.548286C10.3494 0.471418 10.2398 0.417905 10.1224 0.392259C10.0049 0.366613 9.88298 0.369586 9.7669 0.400927C9.65082 0.432268 9.54398 0.491058 9.45538 0.572341C9.36678 0.653624 9.29902 0.755017 9.25781 0.867973L7.19531 6.53141L4.93031 4.33672C4.85425 4.26295 4.76341 4.20613 4.66379 4.17001C4.56417 4.13389 4.45802 4.11929 4.35235 4.12717C4.24667 4.13505 4.14387 4.16524 4.05071 4.21574C3.95755 4.26624 3.87615 4.33591 3.81188 4.42016C1.78125 7.08079 0.75 9.75735 0.75 12.3748C0.75 14.5629 1.61919 16.6613 3.16637 18.2085C4.71354 19.7557 6.81196 20.6248 9 20.6248C11.188 20.6248 13.2865 19.7557 14.8336 18.2085C16.3808 16.6613 17.25 14.5629 17.25 12.3748C17.25 6.80141 12.4884 2.24985 10.4419 0.548286ZM9 19.1248C7.2104 19.1229 5.49466 18.4111 4.22922 17.1456C2.96378 15.8802 2.25199 14.1644 2.25 12.3748C2.25 10.3123 3.00844 8.17579 4.50562 6.01485L6.97781 8.41297C7.0676 8.50017 7.17777 8.56351 7.2983 8.59722C7.41883 8.63093 7.54588 8.63395 7.66787 8.60599C7.78986 8.57803 7.90292 8.51999 7.99674 8.43715C8.09055 8.35431 8.16215 8.24931 8.205 8.13172L10.2928 2.40641C12.3947 4.31985 15.75 8.05391 15.75 12.3748C15.748 14.1644 15.0362 15.8802 13.7708 17.1456C12.5053 18.4111 10.7896 19.1229 9 19.1248Z" fill="#CAFF92"/>
</svg>
