<svg width="22" height="18" viewBox="0 0 22 18" fill="none" xmlns="http://www.w3.org/2000/svg">
<path d="M21.8739 4.5C21.8739 3.50544 21.4788 2.55161 20.7755 1.84835C20.0722 1.14509 19.1184 0.75 18.1239 0.75H3.87386C3.01274 0.750522 2.17804 1.04739 1.50998 1.59074C0.841922 2.13408 0.381215 2.89079 0.205257 3.73374C0.0292989 4.57669 0.148812 5.45451 0.543718 6.21974C0.938624 6.98497 1.58486 7.59097 2.37386 7.93594V15.75C2.37386 16.1478 2.53189 16.5294 2.8132 16.8107C3.0945 17.092 3.47603 17.25 3.87386 17.25H18.1239C18.5217 17.25 18.9032 17.092 19.1845 16.8107C19.4658 16.5294 19.6239 16.1478 19.6239 15.75V7.93594C20.292 7.64355 20.8606 7.16293 21.2601 6.55278C21.6597 5.94263 21.873 5.22934 21.8739 4.5ZM3.87386 8.25C4.07277 8.25 4.26354 8.17098 4.40419 8.03033C4.54484 7.88968 4.62386 7.69891 4.62386 7.5C4.62386 7.30109 4.54484 7.11032 4.40419 6.96967C4.26354 6.82902 4.07277 6.75 3.87386 6.75C3.27712 6.75 2.70483 6.51295 2.28287 6.09099C1.86091 5.66903 1.62386 5.09674 1.62386 4.5C1.62386 3.90326 1.86091 3.33097 2.28287 2.90901C2.70483 2.48705 3.27712 2.25 3.87386 2.25H12.8739C13.4706 2.25 14.0429 2.48705 14.4648 2.90901C14.8868 3.33097 15.1239 3.90326 15.1239 4.5C15.1239 5.09674 14.8868 5.66903 14.4648 6.09099C14.0429 6.51295 13.4706 6.75 12.8739 6.75C12.6749 6.75 12.4842 6.82902 12.3435 6.96967C12.2029 7.11032 12.1239 7.30109 12.1239 7.5C12.1239 7.69891 12.2029 7.88968 12.3435 8.03033C12.4842 8.17098 12.6749 8.25 12.8739 8.25V15.75H3.87386V8.25ZM18.1239 6.75C17.9249 6.75 17.7342 6.82902 17.5935 6.96967C17.4529 7.11032 17.3739 7.30109 17.3739 7.5C17.3739 7.69891 17.4529 7.88968 17.5935 8.03033C17.7342 8.17098 17.9249 8.25 18.1239 8.25V15.75H14.3739V7.93594C14.8922 7.7096 15.3527 7.36893 15.7208 6.93943C16.0888 6.50993 16.355 6.00273 16.4992 5.45581C16.6435 4.90888 16.6622 4.33641 16.5539 3.78124C16.4456 3.22607 16.2131 2.70259 15.8739 2.25H18.1239C18.7206 2.25 19.2929 2.48705 19.7148 2.90901C20.1368 3.33097 20.3739 3.90326 20.3739 4.5C20.3739 5.09674 20.1368 5.66903 19.7148 6.09099C19.2929 6.51295 18.7206 6.75 18.1239 6.75Z" fill="#CAFF92"/>
</svg>
