<svg width="26" height="22" viewBox="0 0 26 22" fill="none" xmlns="http://www.w3.org/2000/svg">
<path d="M1.54167 5.75411H5.83854C6.06802 6.65684 6.58927 7.45697 7.32011 8.02835C8.05096 8.59974 8.94982 8.90987 9.875 8.90987C10.8002 8.90987 11.699 8.59974 12.4299 8.02835C13.1607 7.45697 13.682 6.65684 13.9115 5.75411H24.4583C24.7346 5.75411 24.9996 5.64358 25.1949 5.44682C25.3903 5.25006 25.5 4.9832 25.5 4.70494C25.5 4.42668 25.3903 4.15982 25.1949 3.96306C24.9996 3.7663 24.7346 3.65576 24.4583 3.65576H13.9115C13.682 2.75303 13.1607 1.95291 12.4299 1.38152C11.699 0.810139 10.8002 0.5 9.875 0.5C8.94982 0.5 8.05096 0.810139 7.32011 1.38152C6.58927 1.95291 6.06802 2.75303 5.83854 3.65576H1.54167C1.2654 3.65576 1.00045 3.7663 0.805097 3.96306C0.609747 4.15982 0.5 4.42668 0.5 4.70494C0.5 4.9832 0.609747 5.25006 0.805097 5.44682C1.00045 5.64358 1.2654 5.75411 1.54167 5.75411ZM9.875 2.60658C10.287 2.60658 10.6898 2.72965 11.0324 2.96022C11.375 3.19079 11.6421 3.51851 11.7997 3.90193C11.9574 4.28536 11.9987 4.70727 11.9183 5.11431C11.8379 5.52135 11.6395 5.89524 11.3481 6.1887C11.0568 6.48216 10.6856 6.68201 10.2814 6.76297C9.87731 6.84394 9.45842 6.80238 9.07774 6.64356C8.69706 6.48474 8.37169 6.21579 8.14277 5.87072C7.91385 5.52565 7.79167 5.11995 7.79167 4.70494C7.79167 4.14842 8.01116 3.6147 8.40186 3.22118C8.79256 2.82766 9.32247 2.60658 9.875 2.60658ZM24.4583 16.2459H22.2448C22.0153 15.3432 21.4941 14.543 20.7632 13.9716C20.0324 13.4003 19.1335 13.0901 18.2083 13.0901C17.2832 13.0901 16.3843 13.4003 15.6534 13.9716C14.9226 14.543 14.4014 15.3432 14.1719 16.2459H1.54167C1.2654 16.2459 1.00045 16.3564 0.805097 16.5532C0.609747 16.7499 0.5 17.0168 0.5 17.2951C0.5 17.5733 0.609747 17.8402 0.805097 18.0369C1.00045 18.2337 1.2654 18.3442 1.54167 18.3442H14.1719C14.4014 19.247 14.9226 20.0471 15.6534 20.6185C16.3843 21.1899 17.2832 21.5 18.2083 21.5C19.1335 21.5 20.0324 21.1899 20.7632 20.6185C21.4941 20.0471 22.0153 19.247 22.2448 18.3442H24.4583C24.7346 18.3442 24.9996 18.2337 25.1949 18.0369C25.3903 17.8402 25.5 17.5733 25.5 17.2951C25.5 17.0168 25.3903 16.7499 25.1949 16.5532C24.9996 16.3564 24.7346 16.2459 24.4583 16.2459ZM18.2083 19.3934C17.7963 19.3934 17.3935 19.2703 17.0509 19.0398C16.7083 18.8092 16.4413 18.4815 16.2836 18.0981C16.1259 17.7146 16.0846 17.2927 16.165 16.8857C16.2454 16.4787 16.4438 16.1048 16.7352 15.8113C17.0266 15.5178 17.3978 15.318 17.8019 15.237C18.206 15.1561 18.6249 15.1976 19.0056 15.3564C19.3863 15.5153 19.7116 15.7842 19.9406 16.1293C20.1695 16.4744 20.2917 16.88 20.2917 17.2951C20.2917 17.8516 20.0722 18.3853 19.6815 18.7788C19.2908 19.1723 18.7609 19.3934 18.2083 19.3934Z" fill="#FFFEFE"/>
</svg>
