<svg width="18" height="22" viewBox="0 0 18 22" fill="none" xmlns="http://www.w3.org/2000/svg">
<path d="M11.25 20.7502C11.25 20.9491 11.171 21.1399 11.0303 21.2805C10.8897 21.4212 10.6989 21.5002 10.5 21.5002H7.49998C7.30106 21.5002 7.1103 21.4212 6.96965 21.2805C6.82899 21.1399 6.74998 20.9491 6.74998 20.7502C6.74998 20.5513 6.82899 20.3605 6.96965 20.2199C7.1103 20.0792 7.30106 20.0002 7.49998 20.0002H10.5C10.6989 20.0002 10.8897 20.0792 11.0303 20.2199C11.171 20.3605 11.25 20.5513 11.25 20.7502ZM8.99998 10.2502C9.22248 10.2502 9.43999 10.1842 9.62499 10.0606C9.81 9.93698 9.95419 9.76128 10.0393 9.55571C10.1245 9.35014 10.1468 9.12394 10.1034 8.90572C10.06 8.68749 9.9528 8.48703 9.79547 8.3297C9.63814 8.17236 9.43768 8.06522 9.21945 8.02181C9.00122 7.9784 8.77502 8.00068 8.56946 8.08583C8.36389 8.17098 8.18819 8.31517 8.06457 8.50018C7.94095 8.68518 7.87498 8.90269 7.87498 9.12519C7.87498 9.42356 7.9935 9.70971 8.20448 9.92069C8.41546 10.1317 8.70161 10.2502 8.99998 10.2502ZM17.9643 14.3593L16.8056 19.5746C16.7506 19.8222 16.6337 20.0519 16.4659 20.2421C16.298 20.4323 16.0846 20.5768 15.8457 20.6621C15.6068 20.7475 15.3502 20.7708 15.0998 20.73C14.8494 20.6891 14.6135 20.5854 14.414 20.4286L11.8603 18.5002H6.14154L3.58591 20.4286C3.38649 20.5854 3.15056 20.6891 2.90018 20.73C2.6498 20.7708 2.39315 20.7475 2.15424 20.6621C1.91533 20.5768 1.70196 20.4323 1.53408 20.2421C1.36621 20.0519 1.24932 19.8222 1.19435 19.5746L0.0355995 14.3593C-0.0135523 14.1354 -0.011069 13.9034 0.0428615 13.6807C0.096792 13.458 0.200752 13.2505 0.34685 13.0739L3.02435 9.86207C3.11422 8.6817 3.3852 7.52219 3.82779 6.42426C5.03716 3.39238 7.20279 1.49019 8.08123 0.813318C8.34416 0.609584 8.66735 0.499023 8.99998 0.499023C9.3326 0.499023 9.65579 0.609584 9.91873 0.813318C10.7944 1.49019 12.9628 3.39238 14.1722 6.42426C14.6148 7.52219 14.8857 8.6817 14.9756 9.86207L17.6531 13.0739C17.7992 13.2505 17.9032 13.458 17.9571 13.6807C18.011 13.9034 18.0135 14.1354 17.9643 14.3593ZM6.32154 17.0002H11.6784C13.6584 13.4808 14.0287 10.1114 12.779 6.98019C11.6765 4.21644 9.60841 2.46894 8.99998 2.00019C8.38966 2.46894 6.32154 4.21644 5.21904 6.98019C3.97122 10.1114 4.34154 13.4808 6.32154 17.0002ZM4.91529 17.5486C3.90591 15.7143 3.29341 13.9114 3.07779 12.1402L1.49997 14.0339L2.65872 19.2502L2.6756 19.238L4.91529 17.5486ZM16.5 14.0339L14.9222 12.1402C14.7084 13.9077 14.0972 15.7105 13.0884 17.5486L15.3244 19.2361L15.3412 19.2483L16.5 14.0339Z" fill="#85E91B"/>
</svg>
