<?xml version="1.0" encoding="iso-8859-1"?>
<!-- Uploaded to: SVG Repo, www.svgrepo.com, Generator: SVG Repo Mixer Tools -->
<!DOCTYPE svg PUBLIC "-//W3C//DTD SVG 1.1//EN" "http://www.w3.org/Graphics/SVG/1.1/DTD/svg11.dtd">
<svg fill="#000000" version="1.1" id="Capa_1" xmlns="http://www.w3.org/2000/svg" xmlns:xlink="http://www.w3.org/1999/xlink" 
	 width="800px" height="800px" viewBox="0 0 200.712 200.712"
	 xml:space="preserve">
<g>
	<path d="M197.595,91.451h-59.723c-3.148-12.388-11.94-21.915-25.544-27.56c-15.454-6.397-29.216-4.458-39.622,5.188V24.57
		c0-1.72-1.397-3.118-3.118-3.118s-3.118,1.397-3.118,3.118v15.198c-2.013-3.367-4.844-6.78-8.811-9.023
		c-3.416-1.928-7.499-2.905-12.139-2.905c-6.26,0-11.399,1.802-11.609,1.875c-1.468,0.518-2.32,2.04-2.01,3.562
		c0.119,0.566,2.975,14.06,13.156,19.827c3.413,1.927,7.496,2.898,12.13,2.898c3.791,0,7.158-0.658,9.283-1.197v14.279
		C56.052,59.44,42.291,57.5,26.839,63.897C2.647,73.923-5.716,95.661,3.898,123.525c7.971,23.114,25.891,45.333,42.615,52.872
		c7.331,3.301,14.06,3.732,20.003,1.267c1.026-0.421,2.03-0.956,3.072-1.656c1.042,0.694,2.052,1.229,3.075,1.656
		c2.643,1.103,5.355,1.595,8.104,1.595c13.5,0,27.736-12.099,37.954-25.422h78.873c1.723,0,3.117-1.395,3.117-3.117V94.577
		C200.712,92.848,199.317,91.451,197.595,91.451z M57.182,49.768c-3.55,0-6.598-0.704-9.061-2.089
		c-5.282-2.983-8.068-9.207-9.311-12.842c1.735-0.381,4.116-0.762,6.704-0.762c3.553,0,6.604,0.704,9.073,2.095
		c5.279,2.987,8.074,9.204,9.313,12.839C62.15,49.396,59.77,49.768,57.182,49.768z M75.038,171.916
		c-1.096-0.451-2.219-1.151-3.528-2.187c-1.136-0.907-2.731-0.907-3.867,0c-1.315,1.035-2.439,1.724-3.535,2.187
		c-4.284,1.76-9.347,1.376-15.053-1.194c-15.052-6.771-31.938-27.924-39.275-49.212C1.256,96.8,8.152,78.39,29.208,69.667
		c10.939-4.534,26.375-6.58,37.832,9.389c0.037,0.055,0.104,0.073,0.149,0.125c0.572,0.704,1.409,1.179,2.381,1.179
		c0.974,0,1.814-0.475,2.381-1.179c0.045-0.052,0.112-0.07,0.152-0.125c11.442-15.975,26.884-13.923,37.823-9.389
		c7.864,3.261,17.662,9.712,21.4,21.799H49.729c-1.72,0-3.118,1.395-3.118,3.118v56.148c0,1.711,1.397,3.117,3.118,3.117h60.971
		C98.122,168.773,84.528,175.85,75.038,171.916z M194.477,147.602h-12.397c0-0.067,0.037-0.115,0.037-0.183v-18.986
		c0-1.723-1.4-3.117-3.118-3.117c-1.717,0-3.117,1.395-3.117,3.117v18.986c0,0.067,0.036,0.128,0.042,0.183h-15.648
		c0-0.067,0.042-0.115,0.042-0.183v-18.986c0-1.723-1.406-3.117-3.117-3.117c-1.724,0-3.118,1.395-3.118,3.117v18.986
		c0,0.067,0.031,0.128,0.037,0.183h-15.631c0-0.067,0.036-0.115,0.036-0.183v-18.986c0-1.723-1.406-3.117-3.117-3.117
		c-1.724,0-3.118,1.395-3.118,3.117v18.986c0,0.067,0.031,0.128,0.037,0.183h-13.609c-0.646-0.28-1.34-0.359-1.997-0.194v-18.975
		c0-1.723-1.4-3.117-3.118-3.117c-1.723,0-3.12,1.395-3.12,3.117v18.986c0,0.067,0.03,0.128,0.036,0.183H94.886
		c0-0.067,0.037-0.115,0.037-0.183v-18.986c0-1.723-1.397-3.117-3.118-3.117s-3.118,1.395-3.118,3.117v18.986
		c0,0.067,0.03,0.128,0.037,0.183H73.086c0-0.067,0.037-0.115,0.037-0.183v-18.986c0-1.723-1.395-3.117-3.118-3.117
		c-1.72,0-3.118,1.395-3.118,3.117v18.986c0,0.067,0.034,0.128,0.04,0.183H52.88V97.688h141.609v49.913H194.477z"/>
</g>
</svg>