<svg width="25" height="25" viewBox="0 0 25 25" fill="none" xmlns="http://www.w3.org/2000/svg">
<path d="M8.41953 24H3.96835C2.32859 24 1 22.6582 1 21.0021V12.1835C1.001 11.541 1.13792 10.9062 1.40159 10.3216C1.66525 9.73692 2.04958 9.21592 2.52882 8.79346L10.5518 1.73607C11.092 1.26142 11.7839 1 12.5 1C13.2161 1 13.908 1.26142 14.4482 1.73607L22.4712 8.79483C22.9503 9.21713 23.3345 9.73791 23.5981 10.3223C23.8618 10.9067 23.9988 11.5413 24 12.1835V21.0021C24 21.797 23.6874 22.5593 23.1311 23.1215C22.5747 23.6836 21.82 23.9996 21.033 24H16.9512V15.0078C16.9512 13.7671 15.9554 12.7601 14.7256 12.7601H10.6465C9.41665 12.7601 8.42088 13.7671 8.42088 15.0078L8.41953 24ZM8.41953 24H16.9525" stroke="#FFFEFE" stroke-width="1.5" stroke-linejoin="round"/>
</svg>
