<svg width="18" height="19" viewBox="0 0 18 19" fill="none" xmlns="http://www.w3.org/2000/svg">
<path d="M3.75001 5.38131V0.881309C3.75001 0.682397 3.82903 0.491631 3.96968 0.350979C4.11033 0.210327 4.3011 0.131309 4.50001 0.131309C4.69892 0.131309 4.88968 0.210327 5.03034 0.350979C5.17099 0.491631 5.25001 0.682397 5.25001 0.881309V5.38131C5.25001 5.58022 5.17099 5.77099 5.03034 5.91164C4.88968 6.05229 4.69892 6.13131 4.50001 6.13131C4.3011 6.13131 4.11033 6.05229 3.96968 5.91164C3.82903 5.77099 3.75001 5.58022 3.75001 5.38131ZM17.25 0.881309V18.1313C17.25 18.3302 17.171 18.521 17.0303 18.6616C16.8897 18.8023 16.6989 18.8813 16.5 18.8813C16.3011 18.8813 16.1103 18.8023 15.9697 18.6616C15.829 18.521 15.75 18.3302 15.75 18.1313V13.6313H11.25C11.0511 13.6313 10.8603 13.5523 10.7197 13.4116C10.579 13.271 10.5 13.0802 10.5 12.8813C10.5348 11.0848 10.7618 9.29709 11.1769 7.54881C12.0938 3.75287 13.8319 1.2085 16.2047 0.192247C16.3187 0.143394 16.4431 0.123597 16.5667 0.134631C16.6903 0.145666 16.8092 0.187185 16.9128 0.25547C17.0164 0.323755 17.1014 0.416673 17.1603 0.525896C17.2191 0.63512 17.2499 0.757239 17.25 0.881309ZM15.75 2.18443C12.7341 4.48787 12.1434 10.0988 12.0281 12.1313H15.75V2.18443ZM8.23969 0.758497C8.22501 0.660016 8.19085 0.565447 8.13923 0.480304C8.08761 0.395161 8.01955 0.32115 7.93903 0.262586C7.8585 0.204023 7.76712 0.16208 7.67021 0.139203C7.57331 0.116327 7.47282 0.112976 7.3746 0.129345C7.27639 0.145714 7.18241 0.181476 7.09817 0.234545C7.01392 0.287613 6.94108 0.356926 6.8839 0.438441C6.82672 0.519955 6.78634 0.612039 6.76513 0.709322C6.74391 0.806605 6.74228 0.907138 6.76032 1.00506L7.50001 5.44037C7.50001 6.23602 7.18394 6.99908 6.62133 7.56169C6.05872 8.1243 5.29566 8.44037 4.50001 8.44037C3.70436 8.44037 2.9413 8.1243 2.37869 7.56169C1.81608 6.99908 1.50001 6.23602 1.50001 5.44037L2.23876 1.00506C2.2568 0.907138 2.25517 0.806605 2.23395 0.709322C2.21273 0.612039 2.17236 0.519955 2.11518 0.438441C2.058 0.356926 1.98516 0.287613 1.90091 0.234545C1.81666 0.181476 1.72269 0.145714 1.62448 0.129345C1.52626 0.112976 1.42577 0.116327 1.32886 0.139203C1.23196 0.16208 1.14058 0.204023 1.06005 0.262586C0.979525 0.32115 0.911466 0.395161 0.859844 0.480304C0.808223 0.565447 0.774071 0.660016 0.759382 0.758497L0.00938195 5.2585C0.00296512 5.29912 -0.000169875 5.34019 7.09251e-06 5.38131C0.00150566 6.44426 0.37868 7.47246 1.06488 8.28424C1.75109 9.09602 2.70215 9.63911 3.75001 9.81756V18.1313C3.75001 18.3302 3.82903 18.521 3.96968 18.6616C4.11033 18.8023 4.3011 18.8813 4.50001 18.8813C4.69892 18.8813 4.88968 18.8023 5.03034 18.6616C5.17099 18.521 5.25001 18.3302 5.25001 18.1313V9.81756C6.29787 9.63911 7.24893 9.09602 7.93513 8.28424C8.62133 7.47246 8.99851 6.44426 9.00001 5.38131C8.99987 5.34016 8.99643 5.29909 8.98969 5.2585L8.23969 0.758497Z" fill="#FFFEFE"/>
</svg>
