<svg width="23" height="22" viewBox="0 0 23 22" fill="none" xmlns="http://www.w3.org/2000/svg">
<path d="M22 10.9504C22.0033 12.9096 21.3833 14.825 20.2197 16.4505C19.26 17.796 17.9623 18.8984 16.4415 19.6604C14.9206 20.4223 13.2234 20.8203 11.5 20.8191C9.77657 20.8203 8.07937 20.4223 6.55852 19.6604C5.03766 18.8984 3.74001 17.796 2.78033 16.4505C1.86652 15.1703 1.28455 13.7066 1.08109 12.1768C0.877628 10.647 1.05833 9.0937 1.60871 7.64139C2.15908 6.18909 3.06383 4.87817 4.25041 3.81374C5.437 2.7493 6.87241 1.96096 8.44159 1.5119C10.0108 1.06285 11.6701 0.96557 13.2864 1.22787C14.9028 1.49017 16.4314 2.10475 17.7495 3.02234C19.0676 3.93993 20.1387 5.13501 20.8768 6.51178C21.6149 7.88855 21.9996 9.4087 22 10.9504Z" stroke="#FFFEFE" stroke-width="1.66667"/>
<path d="M12.6663 7.66066C12.6663 7.95147 12.5433 8.23038 12.3246 8.43601C12.1058 8.64165 11.809 8.75718 11.4996 8.75718V10.9502C12.4279 10.9502 13.3181 10.6036 13.9745 9.98673C14.6308 9.36982 14.9996 8.5331 14.9996 7.66066H12.6663ZM11.4996 8.75718C11.1902 8.75718 10.8934 8.64165 10.6746 8.43601C10.4558 8.23038 10.3329 7.95147 10.3329 7.66066H7.99959C7.99959 8.5331 8.36834 9.36982 9.02472 9.98673C9.6811 10.6036 10.5713 10.9502 11.4996 10.9502V8.75718ZM10.3329 7.66066C10.3329 7.36984 10.4558 7.09094 10.6746 6.8853C10.8934 6.67966 11.1902 6.56414 11.4996 6.56414V4.37109C10.5713 4.37109 9.6811 4.71767 9.02472 5.33458C8.36834 5.9515 7.99959 6.78821 7.99959 7.66066H10.3329ZM11.4996 6.56414C11.809 6.56414 12.1058 6.67966 12.3246 6.8853C12.5433 7.09094 12.6663 7.36984 12.6663 7.66066H14.9996C14.9996 6.78821 14.6308 5.9515 13.9745 5.33458C13.3181 4.71767 12.4279 4.37109 11.4996 4.37109V6.56414ZM3.52659 17.3714L2.40776 17.0589L2.22693 17.6324L2.6411 18.0853L3.52659 17.3714ZM19.4726 17.3714L20.3593 18.0853L20.7723 17.6324L20.5914 17.0589L19.4726 17.3714ZM7.99959 15.3363H14.9996V13.1433H7.99959V15.3363ZM7.99959 13.1433C6.74316 13.1429 5.52017 13.5238 4.51263 14.2293C3.50509 14.9349 2.76685 15.9273 2.40776 17.0589L4.64426 17.684C4.86006 17.0053 5.30318 16.4102 5.90773 15.9872C6.51227 15.5642 7.24593 15.3359 7.99959 15.3363V13.1433ZM11.4996 19.7224C10.1527 19.7238 8.82144 19.4505 7.59781 18.9214C6.37417 18.3923 5.28726 17.6199 4.4121 16.6576L2.6411 18.0853C3.73529 19.2876 5.09388 20.2527 6.6232 20.9139C8.15252 21.5751 9.81621 21.9168 11.4996 21.9154V19.7224ZM14.9996 15.3363C16.5828 15.3363 17.9233 16.3254 18.3549 17.685L20.5914 17.0589C20.2324 15.9275 19.4932 14.9352 18.4859 14.2297C17.4785 13.5242 16.2558 13.1431 14.9996 13.1433V15.3363ZM18.5871 16.6576C17.7119 17.6199 16.625 18.3923 15.4014 18.9214C14.1777 19.4505 12.8465 19.7238 11.4996 19.7224V21.9154C13.183 21.9168 14.8467 21.5751 16.376 20.9139C17.9053 20.2527 19.2651 19.2876 20.3593 18.0853L18.5871 16.6576Z" fill="#FFFEFE"/>
</svg>
