<svg width="23" height="23" viewBox="0 0 23 23" fill="none" xmlns="http://www.w3.org/2000/svg">
<path d="M16.3775 5.49966C16.3775 5.72217 16.3115 5.93967 16.1879 6.12468C16.0643 6.30968 15.8886 6.45388 15.683 6.53903C15.4775 6.62418 15.2513 6.64645 15.0331 6.60305C14.8148 6.55964 14.6144 6.45249 14.457 6.29516C14.2997 6.13782 14.1926 5.93737 14.1491 5.71914C14.1057 5.50091 14.128 5.27471 14.2132 5.06914C14.2983 4.86358 14.4425 4.68787 14.6275 4.56426C14.8125 4.44064 15.03 4.37466 15.2525 4.37466C15.5509 4.37466 15.837 4.49319 16.048 4.70417C16.259 4.91515 16.3775 5.20129 16.3775 5.49966ZM20.945 11.8409C19.1291 15.1128 15.7475 16.8809 10.8913 17.1003L8.82878 21.92C8.77081 22.0553 8.6743 22.1706 8.55126 22.2514C8.42823 22.3323 8.28412 22.3751 8.1369 22.3747H8.08909C7.93454 22.365 7.78678 22.3077 7.66609 22.2107C7.5454 22.1136 7.4577 21.9816 7.41503 21.8328L6.02753 16.9737L1.17128 15.5834C1.022 15.5415 0.889387 15.4543 0.79169 15.3339C0.693993 15.2135 0.636015 15.0658 0.625735 14.9111C0.615455 14.7564 0.653379 14.6023 0.734287 14.47C0.815195 14.3377 0.93511 14.2338 1.07753 14.1725L5.89721 12.11C6.11753 7.2556 7.88565 3.87497 11.1557 2.0581C13.476 0.769975 16.1 0.5731 17.8944 0.634975C19.6419 0.694975 21.2694 1.03529 21.5375 1.19747C21.647 1.262 21.7383 1.3533 21.8028 1.46279C21.9613 1.72997 22.3025 3.35747 22.3653 5.10497C22.4291 6.8956 22.2332 9.5206 20.945 11.8409ZM15.7719 14.5597C14.9053 14.2293 14.1507 13.6591 13.5962 12.9157C13.0417 12.1722 12.7103 11.2863 12.6407 10.3615C11.716 10.292 10.8303 9.96077 10.0871 9.40644C9.34381 8.8521 8.77372 8.09763 8.44347 7.23122C7.79034 8.7181 7.43722 10.5178 7.38409 12.6303C7.38077 12.7741 7.33614 12.914 7.25551 13.0332C7.17489 13.1524 7.06169 13.2459 6.9294 13.3025L3.61159 14.7218L6.84128 15.6462C6.96382 15.6813 7.07538 15.7471 7.16544 15.8373C7.25549 15.9276 7.32106 16.0392 7.35597 16.1618L8.27847 19.3906L9.69971 16.0718C9.75647 15.9397 9.85001 15.8267 9.96919 15.7463C10.0884 15.6658 10.2282 15.6213 10.3719 15.6181C12.4825 15.5675 14.2825 15.2147 15.7719 14.5597ZM20.5419 2.45935C19.2153 2.1781 14.5325 1.4281 11.1388 3.84216C10.5771 4.24295 10.0724 4.71824 9.63878 5.25497C9.60324 5.74473 9.67501 6.23634 9.84906 6.6955C10.0231 7.15466 10.2953 7.57031 10.6465 7.91344C10.9978 8.25658 11.4197 8.51893 11.8828 8.6822C12.3459 8.84546 12.8391 8.90571 13.3278 8.85872C13.438 8.84812 13.549 8.86201 13.6532 8.89939C13.7573 8.93677 13.8518 8.99672 13.9301 9.07494C14.0083 9.15316 14.0682 9.24772 14.1056 9.35184C14.143 9.45595 14.1569 9.56705 14.1463 9.67716C14.0994 10.1661 14.1598 10.6594 14.3233 11.1226C14.4868 11.5859 14.7494 12.0078 15.0928 12.359C15.4363 12.7102 15.8522 12.9822 16.3117 13.156C16.7711 13.3298 17.2629 13.4012 17.7528 13.3653C18.2876 12.9315 18.7607 12.4269 19.1591 11.8653C21.5732 8.47435 20.8232 3.78779 20.5419 2.45935Z" fill="#CAFF92"/>
</svg>
