<svg width="21" height="20" viewBox="0 0 21 20" fill="none" xmlns="http://www.w3.org/2000/svg">
<path d="M20.242 10.8203C20.0826 12.6728 19.3975 14.4412 18.2673 15.9175C17.137 17.3939 15.6086 18.5167 13.8619 19.1539C12.1151 19.7911 10.2228 19.9162 8.40738 19.5144C6.59199 19.1126 4.92911 18.2007 3.61438 16.886C2.29964 15.5713 1.38775 13.9084 0.985982 12.093C0.584216 10.2776 0.70929 8.38522 1.34649 6.6385C1.98369 4.89178 3.10651 3.36338 4.58284 2.23312C6.05918 1.10285 7.82761 0.41775 9.68009 0.258407C9.77858 0.250282 9.87771 0.261635 9.97181 0.291819C10.0659 0.322003 10.1531 0.370427 10.2285 0.434325C10.3039 0.498223 10.366 0.576345 10.4112 0.66423C10.4564 0.752114 10.4838 0.848041 10.492 0.946532C10.5001 1.04502 10.4887 1.14415 10.4585 1.23825C10.4284 1.33236 10.3799 1.4196 10.316 1.49499C10.2521 1.57037 10.174 1.63244 10.0861 1.67764C9.99825 1.72284 9.90233 1.75028 9.80384 1.75841C8.23595 1.89312 6.73915 2.47285 5.48956 3.42937C4.23997 4.3859 3.28958 5.67943 2.7502 7.15777C2.21083 8.63612 2.10491 10.2378 2.44492 11.7743C2.78492 13.3107 3.5567 14.7182 4.66945 15.8309C5.7822 16.9437 7.18962 17.7154 8.72611 18.0555C10.2626 18.3955 11.8643 18.2895 13.3426 17.7502C14.8209 17.2108 16.1145 16.2604 17.071 15.0108C18.0275 13.7612 18.6072 12.2644 18.742 10.6965C18.7584 10.4976 18.8531 10.3134 19.0054 10.1843C19.1576 10.0553 19.3549 9.992 19.5538 10.0084C19.7527 10.0248 19.937 10.1196 20.066 10.2718C20.1951 10.4241 20.2584 10.6214 20.242 10.8203ZM9.74196 4.75841V10.0084C9.74196 10.2073 9.82098 10.3981 9.96163 10.5387C10.1023 10.6794 10.293 10.7584 10.492 10.7584H15.742C15.9409 10.7584 16.1316 10.6794 16.2723 10.5387C16.4129 10.3981 16.492 10.2073 16.492 10.0084C16.492 9.80949 16.4129 9.61873 16.2723 9.47808C16.1316 9.33743 15.9409 9.25841 15.742 9.25841H11.242V4.75841C11.242 4.55949 11.1629 4.36873 11.0223 4.22808C10.8816 4.08743 10.6909 4.00841 10.492 4.00841C10.293 4.00841 10.1023 4.08743 9.96163 4.22808C9.82098 4.36873 9.74196 4.55949 9.74196 4.75841ZM13.492 2.50841C13.7145 2.50841 13.932 2.44243 14.117 2.31881C14.302 2.19519 14.4462 2.01949 14.5313 1.81393C14.6165 1.60836 14.6388 1.38216 14.5953 1.16393C14.5519 0.945702 14.4448 0.745246 14.2875 0.587912C14.1301 0.430578 13.9297 0.323432 13.7114 0.280024C13.4932 0.236616 13.267 0.258894 13.0614 0.344043C12.8559 0.429192 12.6802 0.573386 12.5566 0.758391C12.4329 0.943396 12.367 1.1609 12.367 1.38341C12.367 1.68178 12.4855 1.96792 12.6965 2.1789C12.9074 2.38988 13.1936 2.50841 13.492 2.50841ZM16.867 4.75841C17.0895 4.75841 17.307 4.69243 17.492 4.56881C17.677 4.44519 17.8212 4.26949 17.9063 4.06393C17.9915 3.85836 18.0138 3.63216 17.9703 3.41393C17.9269 3.1957 17.8198 2.99525 17.6625 2.83791C17.5051 2.68058 17.3047 2.57343 17.0864 2.53002C16.8682 2.48662 16.642 2.50889 16.4364 2.59404C16.2309 2.67919 16.0552 2.82339 15.9316 3.00839C15.8079 3.1934 15.742 3.4109 15.742 3.63341C15.742 3.93178 15.8605 4.21792 16.0715 4.4289C16.2824 4.63988 16.5686 4.75841 16.867 4.75841ZM19.117 8.13341C19.3395 8.13341 19.557 8.06743 19.742 7.94381C19.927 7.82019 20.0712 7.64449 20.1563 7.43893C20.2415 7.23336 20.2638 7.00716 20.2203 6.78893C20.1769 6.5707 20.0698 6.37025 19.9125 6.21291C19.7551 6.05558 19.5547 5.94843 19.3364 5.90502C19.1182 5.86162 18.892 5.88389 18.6864 5.96904C18.4809 6.05419 18.3052 6.19839 18.1816 6.38339C18.0579 6.5684 17.992 6.7859 17.992 7.00841C17.992 7.30678 18.1105 7.59292 18.3215 7.8039C18.5324 8.01488 18.8186 8.13341 19.117 8.13341Z" fill="#85E91B"/>
</svg>
